<?xml version="1.0" encoding="UTF-8" standalone="no"?>
<!-- Created with Inkscape (http://www.inkscape.org/) -->

<svg
   width="180"
   height="180"
   viewBox="0 0 180 180"
   version="1.1"
   id="svg1"
   xml:space="preserve"
   xmlns:inkscape="http://www.inkscape.org/namespaces/inkscape"
   xmlns:sodipodi="http://sodipodi.sourceforge.net/DTD/sodipodi-0.dtd"
   xmlns="http://www.w3.org/2000/svg"
   xmlns:svg="http://www.w3.org/2000/svg"><sodipodi:namedview
     id="namedview1"
     pagecolor="#ffffff"
     bordercolor="#000000"
     borderopacity="0.25"
     inkscape:showpageshadow="2"
     inkscape:pageopacity="0.0"
     inkscape:pagecheckerboard="0"
     inkscape:deskcolor="#d1d1d1"
     inkscape:document-units="px"
     showguides="true"><inkscape:page
       x="0"
       y="0"
       width="180"
       height="180"
       id="page2"
       margin="0"
       bleed="0" /></sodipodi:namedview><defs
     id="defs1" /><g
     inkscape:label="图层 1"
     inkscape:groupmode="layer"
     id="layer1"><path
       style="fill:#6e2ef5;fill-opacity:1;stroke:none;stroke-width:1.25151;stroke-opacity:1"
       d="m 53.574497,173.33418 c -3.497803,-4.2146 -1.336216,-9.45904 4.688119,-11.37432 6.71079,-2.13353 12.694956,-10.23845 12.694956,-17.19396 0,-5.80921 2.432551,-8.8105 7.140911,-8.8105 11.884985,0 8.543372,23.53131 -4.917224,34.62667 -6.738672,5.55459 -16.180956,6.87995 -19.606762,2.75211 z m 53.244253,-2.75211 C 93.358146,159.48671 90.016544,135.9554 101.90152,135.9554 c 4.70836,0 7.14092,3.00129 7.14092,8.8105 0,6.95551 5.98415,15.06043 12.69494,17.19396 3.92354,1.24739 5.70626,2.83958 6.07257,5.42356 1.34706,9.50233 -11.05169,11.39164 -20.9912,3.19865 z M 28.417351,157.0995 C 19.862316,152.88347 16.501038,144.30307 17.316702,128.76266 l 0.679571,-12.94753 -4.860021,-1.43467 c -6.7142981,-1.98204 -7.9536316,-10.76931 -1.907411,-13.52417 5.43466,-2.476179 14.053579,-0.54603 18.447659,4.13125 l 3.658851,3.89467 -1.081628,14.32809 c -1.300812,17.2316 -0.02602,20.67946 7.645951,20.67946 6.862364,0 7.600963,-1.78699 8.783881,-21.25189 l 0.953986,-15.69784 6.163794,-5.32818 c 10.445829,-9.029692 29.438061,-4.87492 29.438061,6.43993 0,7.86166 -4.597044,10.20188 -11.572134,5.89103 -8.4413,-5.21701 -10.644037,-2.59444 -10.644037,12.67278 0,26.96507 -14.976384,40.15759 -34.605874,30.48391 z m 101.005419,0.0861 c -8.31333,-3.45157 -12.446,-13.6023 -12.446,-30.57 0,-15.26721 -2.20273,-17.88979 -10.64403,-12.67278 -6.975088,4.31085 -11.572124,1.97063 -11.572124,-5.89103 0,-11.31484 18.992214,-15.469623 29.438054,-6.43993 l 6.16379,5.32819 0.95398,15.69784 c 1.18292,19.46489 1.92153,21.25188 8.78388,21.25188 7.67198,0 8.94677,-3.44787 7.64595,-20.67945 l -1.08162,-14.3281 3.65884,-3.89467 c 4.39408,-4.67727 13.013,-6.60743 18.44766,-4.13124 6.04624,2.75485 4.80689,11.54212 -1.90741,13.52417 l -4.86002,1.43466 0.67959,12.94753 c 1.31294,25.01487 -12.67612,36.96928 -33.26054,28.42293 z M 55.801335,78.260548 49.637541,72.932367 48.683555,57.234528 C 47.500637,37.769631 46.762038,35.982647 39.899674,35.982647 c -7.671966,0 -8.946763,3.447856 -7.645951,20.679453 L 33.335351,70.990193 29.6765,74.884862 C 25.28242,79.562146 16.663501,81.492301 11.228841,79.016105 5.1826204,76.261261 6.4219539,67.473975 13.136252,65.491939 L 17.996273,64.05728 17.316702,51.109754 c -1.056391,-20.126864 6.55797,-30.9958 21.714473,-30.9958 16.303524,0 23.99205,10.621007 23.99205,33.142864 0,15.267208 2.202737,17.889785 10.644037,12.672774 6.97509,-4.310843 11.572134,-1.970623 11.572134,5.891033 0,11.314855 -18.992232,15.469628 -29.438061,6.439923 z m 45.703465,2.197176 c -6.073911,-2.757054 -6.744184,-3.615457 -6.744184,-8.637099 0,-7.861656 4.597036,-10.201876 11.572124,-5.891033 8.4413,5.217011 10.64403,2.594434 10.64403,-12.672774 0,-22.521857 7.68854,-33.142864 23.99206,-33.142864 15.15649,0 22.77085,10.868936 21.71448,30.9958 l -0.67959,12.947526 4.86002,1.434659 c 6.7143,1.982036 7.95365,10.769322 1.90741,13.524166 -5.43466,2.476196 -14.05358,0.546041 -18.44766,-4.131243 l -3.65884,-3.894669 1.08162,-14.328093 c 1.30082,-17.231597 0.0261,-20.679453 -7.64595,-20.679453 -6.86235,0 -7.60096,1.786984 -8.78388,21.251881 l -0.95398,15.697839 -6.16379,5.328181 c -7.19976,6.22369 -12.65887,6.752234 -22.69387,2.197176 z M 72.861814,42.012751 c -1.047333,-1.047335 -1.904242,-4.155142 -1.904242,-6.906241 0,-6.955525 -5.984166,-15.06044 -12.694956,-17.193964 C 48.108779,14.684393 50.405146,4.2452601 61.2691,4.2452601 c 11.525872,0 23.858065,15.1664469 23.935441,29.4364269 0.03879,7.144409 -2.10717,10.235307 -7.106058,10.235307 -1.832833,0 -4.189335,-0.85691 -5.236669,-1.904243 z m 23.803037,0 C 87.482301,32.830194 104.18334,4.2452601 118.7309,4.2452601 c 10.86395,0 13.16032,10.4391329 3.00648,13.6672859 -6.71079,2.133524 -12.69494,10.238439 -12.69494,17.193964 0,5.809193 -2.43256,8.810484 -7.14092,8.810484 -1.83283,0 -4.189334,-0.85691 -5.236669,-1.904243 z"
       id="path16384" /></g></svg>
